<svg width="113" height="106" viewBox="0 0 113 106" fill="none" xmlns="http://www.w3.org/2000/svg">
<path d="M102.632 80.9036C103.59 81.1009 104.232 79.9488 103.561 79.2379L85.4543 60.0495C84.9957 59.5635 85.1336 58.7731 85.7297 58.4711L109.601 46.3779C110.477 45.9338 110.255 44.6239 109.28 44.4946L82.4746 40.9367C81.8196 40.8498 81.4275 40.1629 81.6856 39.5547L91.8719 15.5548C92.2505 14.6628 91.2662 13.8077 90.4359 14.3073L67.3842 28.1777C66.8367 28.5071 66.125 28.2456 65.921 27.6402L57.5562 2.81487C57.2503 1.90703 55.9661 1.90736 55.6607 2.81535L47.3106 27.6393C47.1068 28.2451 46.3948 28.5069 45.8472 28.1774L22.7939 14.306C21.9638 13.8065 20.9795 14.6611 21.3576 15.553L31.5307 39.5551C31.7885 40.1632 31.3964 40.8497 30.7416 40.9367L3.9498 44.4946C2.97574 44.6239 2.75287 45.9335 3.62931 46.3778L27.4867 58.4712C28.0825 58.7732 28.2204 59.5632 27.7622 60.0492L9.66856 79.2382C8.99806 79.9493 9.64086 81.101 10.5981 80.9036L37.1233 75.434C37.7592 75.3029 38.3496 75.8032 38.3245 76.452L37.3192 102.45C37.2821 103.41 38.4891 103.865 39.0949 103.118L55.8313 82.5C56.2315 82.007 56.9839 82.007 57.3841 82.5L74.1206 103.118C74.7263 103.865 75.9334 103.41 75.8962 102.45L74.891 76.4519C74.8659 75.8031 75.4562 75.3028 76.0921 75.4338L102.632 80.9036Z" fill="#FF452C"/>
<path d="M55.7268 54.8334L58.0523 48.4943C58.3752 47.6139 58.9753 46.9771 59.8525 46.584C60.7297 46.1909 61.6334 46.1537 62.5635 46.4725L69.2606 48.768C70.1908 49.0869 70.8683 49.666 71.2934 50.5055C71.7184 51.345 71.7694 52.2049 71.4464 53.0853L67.1832 64.707C66.7633 65.8516 66.1311 66.8614 65.2865 67.7365C64.4263 68.6186 63.4558 69.3019 62.375 69.7863C61.2941 70.2707 60.1265 70.5457 58.8721 70.6113C57.602 70.6839 56.3624 70.513 55.1532 70.0985L54.037 69.7159C53.7347 69.6123 53.5115 69.4181 53.3672 69.1332C53.223 68.8484 53.2034 68.5629 53.3084 68.2768L54.0835 66.1638C54.1885 65.8776 54.3898 65.6679 54.6874 65.5345C54.985 65.4011 55.285 65.3862 55.5873 65.4898L56.7035 65.8724C57.9359 66.2949 59.1395 66.2428 60.3143 65.7163C61.4891 65.1898 62.2905 64.3433 62.7185 63.1767L62.9122 62.6484C63.0737 62.2082 63.0482 61.7782 62.8357 61.3585C62.6232 60.9388 62.2844 60.6492 61.8193 60.4898L57.9127 59.1507C56.9825 58.8319 56.3049 58.2528 55.8799 57.4133C55.4549 56.5738 55.4039 55.7139 55.7268 54.8334ZM40.1003 49.4772L42.4257 43.1381C42.7487 42.2577 43.3488 41.6209 44.226 41.2278C45.1031 40.8346 46.0068 40.7975 46.937 41.1163L53.6341 43.4118C54.5642 43.7307 55.2418 44.3098 55.6668 45.1493C56.0918 45.9888 56.1429 46.8487 55.8199 47.7291L51.5566 59.3508C51.1368 60.4954 50.5046 61.5052 49.66 62.3803C48.7998 63.2624 47.8292 63.9457 46.7484 64.4301C45.6676 64.9145 44.5 65.1895 43.2456 65.2551C41.9755 65.3277 40.7358 65.1568 39.5266 64.7423L38.4105 64.3597C38.1082 64.2561 37.8849 64.0619 37.7407 63.777C37.5965 63.4922 37.5769 63.2067 37.6818 62.9206L38.457 60.8076C38.5619 60.5214 38.7632 60.3117 39.0609 60.1783C39.3585 60.0449 39.6584 60.03 39.9607 60.1336L41.0769 60.5162C42.3094 60.9387 43.513 60.8866 44.6878 60.3601C45.8626 59.8336 46.664 58.9871 47.0919 57.8205L47.2857 57.2922C47.4472 56.852 47.4217 56.422 47.2092 56.0023C46.9966 55.5826 46.6579 55.293 46.1928 55.1336L42.2861 53.7945C41.356 53.4757 40.6784 52.8966 40.2534 52.0571C39.8283 51.2176 39.7773 50.3576 40.1003 49.4772Z" fill="white"/>
</svg>
