<svg width="41" height="41" viewBox="0 0 41 41" fill="none" xmlns="http://www.w3.org/2000/svg">
<path d="M1.99378 1.00467C1.99378 1.20337 1.93531 1.39761 1.82577 1.56282C1.71623 1.72803 1.56054 1.8568 1.37838 1.93284C1.19622 2.00888 0.995783 2.02877 0.802406 1.99001C0.609029 1.95124 0.4314 1.85556 0.291983 1.71506C0.152565 1.57456 0.057621 1.39555 0.0191558 1.20066C-0.0193093 1.00578 0.000432394 0.803782 0.0758845 0.620207C0.151337 0.436632 0.27911 0.279728 0.443048 0.169336C0.606985 0.0589442 0.799723 2.27838e-05 0.996889 2.27838e-05C1.12798 -0.000607816 1.25789 0.0249476 1.37912 0.0752124C1.50035 0.125477 1.6105 0.199455 1.70319 0.292871C1.79589 0.386286 1.86929 0.497288 1.91917 0.619462C1.96905 0.741636 1.9944 0.872559 1.99378 1.00467Z" fill="#9A95AD"/>
<path d="M14.9958 1.00466C14.9958 1.20336 14.9374 1.39759 14.8278 1.56281C14.7183 1.72802 14.5626 1.85679 14.3805 1.93283C14.1983 2.00887 13.9979 2.02876 13.8045 1.99C13.6111 1.95123 13.4335 1.85555 13.2941 1.71505C13.1546 1.57455 13.0597 1.39553 13.0212 1.20065C12.9828 1.00577 13.0025 0.80377 13.078 0.620195C13.1534 0.436621 13.2812 0.279716 13.4451 0.169325C13.6091 0.0589328 13.8018 1.13919e-05 13.999 1.13919e-05C14.13 -0.000619207 14.26 0.0249362 14.3812 0.075201C14.5024 0.125466 14.6126 0.199443 14.7053 0.292859C14.798 0.386275 14.8714 0.497277 14.9212 0.619451C14.9711 0.741624 14.9965 0.872548 14.9958 1.00466Z" fill="#9A95AD"/>
<path d="M27.9979 1.00466C27.9979 1.20336 27.9395 1.39759 27.8299 1.56281C27.7204 1.72802 27.5647 1.85679 27.3825 1.93283C27.2004 2.00887 26.9999 2.02876 26.8065 1.99C26.6132 1.95123 26.4355 1.85555 26.2961 1.71505C26.1567 1.57455 26.0618 1.39553 26.0233 1.20065C25.9848 1.00577 26.0046 0.80377 26.08 0.620195C26.1555 0.436621 26.2833 0.279716 26.4472 0.169325C26.6111 0.0589328 26.8039 1.13919e-05 27.001 1.13919e-05C27.1321 -0.000619207 27.262 0.0249362 27.3833 0.075201C27.5045 0.125466 27.6146 0.199443 27.7073 0.292859C27.8 0.386275 27.8734 0.497277 27.9233 0.619451C27.9732 0.741624 27.9985 0.872548 27.9979 1.00466Z" fill="#9A95AD"/>
<path d="M40.0031 2.0093C40.5537 2.0093 41 1.55951 41 1.00466C41 0.449806 40.5537 1.13919e-05 40.0031 1.13919e-05C39.4525 1.13919e-05 39.0062 0.449806 39.0062 1.00466C39.0062 1.55951 39.4525 2.0093 40.0031 2.0093Z" fill="#9A95AD"/>
<path d="M1.99378 13.9936C1.99378 14.1923 1.93531 14.3866 1.82577 14.5518C1.71623 14.717 1.56054 14.8458 1.37838 14.9218C1.19622 14.9978 0.995783 15.0177 0.802406 14.979C0.609028 14.9402 0.4314 14.8445 0.291982 14.704C0.152565 14.5635 0.0576205 14.3845 0.0191554 14.1896C-0.0193098 13.9947 0.000431944 13.7927 0.0758841 13.6092C0.151336 13.4256 0.27911 13.2687 0.443047 13.1583C0.606985 13.0479 0.799723 12.989 0.996889 12.989C1.12798 12.9883 1.25789 13.0139 1.37912 13.0642C1.50035 13.1144 1.6105 13.1884 1.70319 13.2818C1.79589 13.3752 1.86929 13.4862 1.91917 13.6084C1.96904 13.7306 1.9944 13.8615 1.99378 13.9936Z" fill="#9A95AD"/>
<path d="M14.9958 13.9936C14.9958 14.1923 14.9374 14.3866 14.8278 14.5518C14.7183 14.717 14.5626 14.8458 14.3805 14.9218C14.1983 14.9978 13.9979 15.0177 13.8045 14.979C13.6111 14.9402 13.4335 14.8445 13.2941 14.704C13.1546 14.5635 13.0597 14.3845 13.0212 14.1896C12.9828 13.9947 13.0025 13.7927 13.078 13.6092C13.1534 13.4256 13.2812 13.2687 13.4451 13.1583C13.6091 13.0479 13.8018 12.989 13.999 12.989C14.13 12.9883 14.26 13.0139 14.3812 13.0642C14.5024 13.1144 14.6126 13.1884 14.7053 13.2818C14.798 13.3752 14.8714 13.4862 14.9212 13.6084C14.9711 13.7306 14.9965 13.8615 14.9958 13.9936Z" fill="#9A95AD"/>
<path d="M27.9979 13.9936C27.9979 14.1923 27.9395 14.3866 27.8299 14.5518C27.7204 14.717 27.5647 14.8458 27.3825 14.9218C27.2004 14.9978 26.9999 15.0177 26.8065 14.979C26.6132 14.9402 26.4355 14.8445 26.2961 14.704C26.1567 14.5635 26.0618 14.3845 26.0233 14.1896C25.9848 13.9947 26.0046 13.7927 26.08 13.6092C26.1555 13.4256 26.2833 13.2687 26.4472 13.1583C26.6111 13.0479 26.8039 12.989 27.001 12.989C27.1321 12.9883 27.262 13.0139 27.3833 13.0642C27.5045 13.1144 27.6146 13.1884 27.7073 13.2818C27.8 13.3752 27.8734 13.4862 27.9233 13.6084C27.9732 13.7306 27.9985 13.8615 27.9979 13.9936Z" fill="#9A95AD"/>
<path d="M40.0031 14.9983C40.5537 14.9983 41 14.5485 41 13.9936C41 13.4388 40.5537 12.989 40.0031 12.989C39.4525 12.989 39.0062 13.4388 39.0062 13.9936C39.0062 14.5485 39.4525 14.9983 40.0031 14.9983Z" fill="#9A95AD"/>
<path d="M1.99378 26.9826C1.99378 27.1813 1.93531 27.3755 1.82577 27.5407C1.71623 27.7059 1.56054 27.8347 1.37838 27.9108C1.19622 27.9868 0.995783 28.0067 0.802406 27.9679C0.609028 27.9292 0.4314 27.8335 0.291982 27.693C0.152565 27.5525 0.0576205 27.3735 0.0191554 27.1786C-0.0193098 26.9837 0.000431944 26.7817 0.0758841 26.5981C0.151336 26.4145 0.27911 26.2576 0.443047 26.1473C0.606985 26.0369 0.799723 25.9779 0.996889 25.9779C1.12798 25.9773 1.25789 26.0029 1.37912 26.0531C1.50035 26.1034 1.6105 26.1774 1.70319 26.2708C1.79589 26.3642 1.86929 26.4752 1.91917 26.5974C1.96904 26.7196 1.9944 26.8505 1.99378 26.9826Z" fill="#9A95AD"/>
<path d="M14.9958 26.9826C14.9958 27.1813 14.9374 27.3755 14.8278 27.5407C14.7183 27.7059 14.5626 27.8347 14.3805 27.9108C14.1983 27.9868 13.9979 28.0067 13.8045 27.9679C13.6111 27.9292 13.4335 27.8335 13.2941 27.693C13.1546 27.5525 13.0597 27.3735 13.0212 27.1786C12.9828 26.9837 13.0025 26.7817 13.078 26.5981C13.1534 26.4145 13.2812 26.2576 13.4451 26.1473C13.6091 26.0369 13.8018 25.9779 13.999 25.9779C14.13 25.9773 14.26 26.0029 14.3812 26.0531C14.5024 26.1034 14.6126 26.1774 14.7053 26.2708C14.798 26.3642 14.8714 26.4752 14.9212 26.5974C14.9711 26.7196 14.9965 26.8505 14.9958 26.9826Z" fill="#9A95AD"/>
<path d="M27.9979 26.9826C27.9979 27.1813 27.9395 27.3755 27.8299 27.5407C27.7204 27.7059 27.5647 27.8347 27.3825 27.9108C27.2004 27.9868 26.9999 28.0067 26.8065 27.9679C26.6132 27.9292 26.4355 27.8335 26.2961 27.693C26.1567 27.5525 26.0618 27.3735 26.0233 27.1786C25.9848 26.9837 26.0046 26.7817 26.08 26.5981C26.1555 26.4145 26.2833 26.2576 26.4472 26.1473C26.6111 26.0369 26.8039 25.9779 27.001 25.9779C27.1321 25.9773 27.262 26.0029 27.3833 26.0531C27.5045 26.1034 27.6146 26.1774 27.7073 26.2708C27.8 26.3642 27.8734 26.4752 27.9233 26.5974C27.9732 26.7196 27.9985 26.8505 27.9979 26.9826Z" fill="#9A95AD"/>
<path d="M41 26.9826C41 27.1813 40.9415 27.3755 40.832 27.5407C40.7224 27.7059 40.5668 27.8347 40.3846 27.9108C40.2024 27.9868 40.002 28.0067 39.8086 27.9679C39.6152 27.9292 39.4376 27.8335 39.2982 27.693C39.1588 27.5525 39.0638 27.3735 39.0254 27.1786C38.9869 26.9837 39.0066 26.7817 39.0821 26.5981C39.1575 26.4145 39.2853 26.2576 39.4493 26.1473C39.6132 26.0369 39.8059 25.9779 40.0031 25.9779C40.1342 25.9773 40.2641 26.0029 40.3853 26.0531C40.5066 26.1034 40.6167 26.1774 40.7094 26.2708C40.8021 26.3642 40.8755 26.4752 40.9254 26.5974C40.9753 26.7196 41.0006 26.8505 41 26.9826Z" fill="#9A95AD"/>
<path d="M1.99378 39.9954C1.99378 40.1941 1.93531 40.3883 1.82577 40.5535C1.71623 40.7187 1.56054 40.8475 1.37838 40.9235C1.19622 40.9996 0.995783 41.0195 0.802406 40.9807C0.609028 40.9419 0.4314 40.8462 0.291982 40.7057C0.152565 40.5652 0.0576205 40.3862 0.0191554 40.1914C-0.0193098 39.9965 0.000431944 39.7945 0.0758841 39.6109C0.151336 39.4273 0.27911 39.2704 0.443047 39.16C0.606985 39.0496 0.799723 38.9907 0.996889 38.9907C1.12798 38.9901 1.25789 39.0156 1.37912 39.0659C1.50035 39.1162 1.6105 39.1901 1.70319 39.2836C1.79589 39.377 1.86929 39.488 1.91917 39.6101C1.96904 39.7323 1.9944 39.8632 1.99378 39.9954Z" fill="#9A95AD"/>
<path d="M14.9958 39.9954C14.9958 40.1941 14.9374 40.3883 14.8278 40.5535C14.7183 40.7187 14.5626 40.8475 14.3805 40.9235C14.1983 40.9996 13.9979 41.0195 13.8045 40.9807C13.6111 40.9419 13.4335 40.8462 13.2941 40.7057C13.1546 40.5652 13.0597 40.3862 13.0212 40.1914C12.9828 39.9965 13.0025 39.7945 13.078 39.6109C13.1534 39.4273 13.2812 39.2704 13.4451 39.16C13.6091 39.0496 13.8018 38.9907 13.999 38.9907C14.13 38.9901 14.26 39.0156 14.3812 39.0659C14.5024 39.1162 14.6126 39.1901 14.7053 39.2836C14.798 39.377 14.8714 39.488 14.9212 39.6101C14.9711 39.7323 14.9965 39.8632 14.9958 39.9954Z" fill="#9A95AD"/>
<path d="M27.9979 39.9954C27.9979 40.1941 27.9395 40.3883 27.8299 40.5535C27.7204 40.7187 27.5647 40.8475 27.3825 40.9235C27.2004 40.9996 26.9999 41.0195 26.8065 40.9807C26.6132 40.9419 26.4355 40.8462 26.2961 40.7057C26.1567 40.5652 26.0618 40.3862 26.0233 40.1914C25.9848 39.9965 26.0046 39.7945 26.08 39.6109C26.1555 39.4273 26.2833 39.2704 26.4472 39.16C26.6111 39.0496 26.8039 38.9907 27.001 38.9907C27.1321 38.9901 27.262 39.0156 27.3833 39.0659C27.5045 39.1162 27.6146 39.1901 27.7073 39.2836C27.8 39.377 27.8734 39.488 27.9233 39.6101C27.9732 39.7323 27.9985 39.8632 27.9979 39.9954Z" fill="#9A95AD"/>
<path d="M40.0031 40.9762C40.5537 40.9762 41 40.5264 41 39.9715C41 39.4167 40.5537 38.9669 40.0031 38.9669C39.4525 38.9669 39.0062 39.4167 39.0062 39.9715C39.0062 40.5264 39.4525 40.9762 40.0031 40.9762Z" fill="#9A95AD"/>
</svg>
