<svg width="118" height="59" viewBox="0 0 118 59" fill="none" xmlns="http://www.w3.org/2000/svg">
<path d="M139.035 3.16457C137.797 4.05264 136.549 4.93298 135.341 5.8614C133.972 6.90911 132.583 7.93637 131.268 9.04983C129.709 10.3737 128.171 11.7181 126.637 13.0724C125.526 14.0467 124.485 15.0972 123.376 16.0765C122.803 16.5835 122.2 17.0381 121.579 17.4771C121.104 17.8207 120.653 18.1896 120.165 18.5154C120.005 18.5991 119.84 18.6729 119.671 18.7363C119.63 18.486 119.608 18.2391 119.573 17.9866C119.537 17.7341 119.494 17.4788 119.455 17.2213C119.328 16.4191 119.227 15.6107 119.082 14.8101C118.973 14.262 118.866 13.7432 118.72 13.2178C118.646 12.9407 118.554 12.6688 118.445 12.4039C118.328 12.1631 118.189 11.9333 118.031 11.7176C117.773 11.3308 117.44 11.0005 117.052 10.7471C116.823 10.5978 116.566 10.4973 116.297 10.4519C116.002 10.4053 115.701 10.4088 115.407 10.4621C115.15 10.5157 114.899 10.5921 114.656 10.6907C114.436 10.7713 114.221 10.8673 114.014 10.9778C113.489 11.2877 113.003 11.6595 112.566 12.0851L111.518 12.9893C110.918 13.5145 110.305 14.0271 109.721 14.5629C108.462 15.7227 107.188 16.8478 105.944 18.0425L101.369 22.3867C99.9592 23.7272 98.5449 25.0699 97.0869 26.3546C96.1967 27.1466 95.2596 27.9 94.3345 28.6539C93.4274 29.4144 92.4777 30.1221 91.4899 30.7736C90.4502 31.4175 89.3446 31.948 88.1918 32.3561C87.8306 32.4509 87.4612 32.5122 87.0885 32.5393C86.8377 32.5274 86.5878 32.4997 86.3402 32.4562C86.132 32.3882 85.9288 32.3179 85.7309 32.2334C85.6554 32.1836 85.5847 32.1317 85.5141 32.0797C85.2777 31.8067 85.0624 31.5159 84.8702 31.2099C84.5633 30.643 84.3085 30.0468 84.0312 29.4666L83.2721 27.8487C82.9015 27.0174 82.484 26.2079 82.0217 25.424C81.451 24.382 80.6617 23.4764 79.7088 22.7703C79.4647 22.6207 79.2088 22.4916 78.9437 22.3844C78.6785 22.2808 78.4038 22.2037 78.1237 22.1544C77.6042 22.0271 77.0663 21.9967 76.5368 22.0645C76.2692 22.1196 76.0071 22.1989 75.7538 22.3013L75.6008 22.3697C75.423 22.4492 75.2452 22.5288 75.083 22.6431C74.5114 22.9653 73.9663 23.3328 73.4531 23.7421C72.987 24.1177 72.5619 24.5584 72.1328 24.9771C71.7038 25.3958 71.2752 25.8023 70.8533 26.2237C69.934 27.1362 69.0617 28.0874 68.2031 29.0562C67.3446 30.025 66.6483 30.8796 65.883 31.8186C65.4595 32.3422 65.0287 32.8631 64.6239 33.4023L62.7643 35.8692L59.9532 39.627L56.8002 43.866C55.492 45.6447 54.1279 47.3648 52.6441 48.9892C52.0464 49.6226 51.4299 50.2405 50.7946 50.8429C50.1768 51.4419 49.5075 51.9849 48.7945 52.4656C48.2272 52.8137 47.6257 53.1027 46.9995 53.3281C46.7904 53.3823 46.5773 53.4197 46.3621 53.4401C46.2166 53.4287 46.0717 53.4098 45.928 53.3836C45.735 53.3228 45.5467 53.2474 45.3649 53.158C45.3089 53.1278 45.2567 53.0911 45.2093 53.0486C44.935 52.7435 44.6886 52.4143 44.473 52.065C44.1713 51.5494 43.902 51.0134 43.62 50.489L42.788 48.9335C42.3483 48.0977 41.863 47.2867 41.3341 46.5044C41.0162 46.0625 40.6668 45.6444 40.2886 45.2533C39.8729 44.8015 39.4095 44.3964 38.9068 44.0451C38.4736 43.751 38.0024 43.5179 37.5066 43.3525C36.9905 43.1769 36.457 43.0593 35.9157 43.0018C35.3792 42.9455 34.8382 42.955 34.3046 43.0301C33.6522 43.1347 33.0135 43.3104 32.3996 43.5539C30.0036 44.4107 27.9176 45.9345 25.8838 47.4289C23.85 48.9234 21.8271 50.6279 19.8823 52.3213C18.998 53.0868 18.1043 53.8446 17.262 54.651C15.9237 55.9339 14.6004 57.2459 13.292 58.587C11.1147 60.7544 8.99102 62.9754 6.89548 65.2196L5.21466 67.0396C4.70492 67.5958 4.2211 68.1703 3.73235 68.747C2.69141 69.9705 1.67863 71.2172 0.65152 72.4583C2.73735 70.6959 4.77722 68.8705 6.87466 67.1207C8.56871 65.7145 10.2451 64.2864 11.9037 62.8364C13.7305 61.2236 15.5417 59.5979 17.3373 57.9594L18.8814 56.5227C19.8104 55.6716 20.746 54.8354 21.6816 53.9992C23.0789 52.7774 24.4811 51.5535 25.932 50.3853C26.6561 49.8049 27.3963 49.2471 28.1364 48.6892C28.8766 48.1314 29.7779 47.4836 30.6045 46.9468C31.6653 46.2953 32.7969 45.7672 33.9775 45.3726C34.3988 45.2637 34.8304 45.1986 35.2655 45.1784C35.6518 45.1958 36.0365 45.2411 36.4165 45.3141C36.7562 45.4075 37.0879 45.5286 37.4082 45.6762C37.7279 45.8789 38.0294 46.1096 38.309 46.3654C38.9144 46.964 39.4573 47.623 39.9294 48.3322C40.5882 49.4341 41.1728 50.569 41.7679 51.6874C41.8724 51.9212 41.9769 52.1549 42.1138 52.3682C42.3695 52.8677 42.6518 53.353 42.9596 53.822C43.1037 54.0381 43.2482 54.242 43.4075 54.4393C43.5754 54.6394 43.7669 54.8183 43.9777 54.9721C44.2002 55.1274 44.4367 55.2614 44.6841 55.3723C44.8469 55.4509 45.0152 55.5172 45.1877 55.5707L45.735 55.7079C46.2433 55.7873 46.7613 55.774 47.264 55.6685C47.7854 55.5528 48.2918 55.3784 48.7737 55.1485C49.8942 54.6235 50.9296 53.9331 51.8457 53.1001C52.298 52.7069 52.7248 52.2832 53.1516 51.8596C53.5784 51.4359 54.0057 51.0001 54.4187 50.5588C55.3024 49.5668 56.1615 48.5858 56.9795 47.5396C57.3643 47.075 57.7002 46.6204 58.0478 46.1785L58.7841 45.1748L61.0253 42.1434C61.8842 40.9635 62.7458 39.7983 63.6101 38.6479L66.3452 34.9718C66.7888 34.3736 67.2582 33.7936 67.7228 33.2158C68.7464 31.9404 69.8005 30.6931 70.9108 29.4923C71.6378 28.7196 72.3835 27.9623 73.1525 27.2305C73.8911 26.482 74.6908 25.797 75.5432 25.1825C75.9359 24.9443 76.3489 24.7416 76.7775 24.5767L76.9824 24.5447C77.1353 24.5539 77.2875 24.5714 77.4386 24.5973C77.6582 24.6588 77.8723 24.7387 78.0787 24.8362C78.217 24.9219 78.3501 25.0158 78.4772 25.1175C78.9206 25.6003 79.3176 26.1241 79.6628 26.6819C80.0843 27.4124 80.434 28.1811 80.7837 28.9497C81.0262 29.4917 81.2708 30.0388 81.5133 30.5808C81.7557 31.1229 82.0582 31.7992 82.3296 32.4059C82.4519 32.6794 82.6434 32.922 82.803 33.1729C82.9626 33.4238 83.0893 33.5879 83.2438 33.7874C83.4261 34.001 83.6258 34.1992 83.8406 34.3798C83.9641 34.4799 84.098 34.566 84.24 34.6369C84.4154 34.7375 84.5912 34.8259 84.772 34.9121C84.9993 35.0134 85.2344 35.0959 85.4749 35.1587C85.7545 35.2374 86.0387 35.2976 86.3259 35.3391C86.5685 35.3689 86.8129 35.3793 87.0569 35.3702C87.3529 35.3669 87.6484 35.3463 87.9419 35.3086C88.5123 35.2074 89.0709 35.0495 89.6096 34.8372C90.222 34.614 90.8177 34.3476 91.3923 34.0399C92.4499 33.4882 93.4614 32.8522 94.4172 32.1379C95.4544 31.3697 96.4295 30.5158 97.418 29.6917C99.3473 28.0829 101.112 26.291 102.92 24.5573C103.47 24.0248 104.011 23.4725 104.566 22.9378C105.801 21.7232 107.029 20.4937 108.274 19.304L111.383 16.344C111.872 15.8867 112.389 15.4525 112.887 15.0029L113.702 14.2805C114.111 13.8947 114.544 13.5355 114.998 13.2051C115.19 13.1077 115.386 13.0199 115.586 12.9423L115.691 12.9252C115.786 13.0335 115.875 13.1474 115.956 13.2662C116.051 13.4383 116.131 13.6179 116.196 13.8033C116.44 14.8808 116.615 15.9723 116.722 17.0714C116.781 17.6416 116.86 18.2029 116.884 18.7593C116.889 18.93 116.895 19.1008 116.905 19.2693C116.938 19.5443 117.012 19.8129 117.125 20.066L117.318 20.3793C117.392 20.5044 117.479 20.6218 117.576 20.7297C117.757 20.935 117.962 21.1178 118.187 21.2741C118.246 21.3118 118.307 21.3463 118.369 21.3774C118.515 21.4884 118.685 21.5637 118.865 21.5975C119.161 21.6876 119.473 21.7168 119.78 21.6833C120.343 21.6103 120.884 21.4231 121.371 21.1329C121.847 20.8598 122.305 20.5554 122.741 20.2217C123.161 19.9146 123.58 19.6197 123.998 19.3077C125.041 18.5119 126.026 17.6424 126.946 16.7057C128.709 14.9746 130.437 13.2226 132.148 11.4429C134.512 8.97723 136.936 6.58006 139.354 4.16798L141.221 2.30051C142.001 1.52779 142.765 0.744563 143.576 2.03881e-05C142.029 1.0079 140.536 2.09369 139.035 3.16457Z" fill="#E6E6E6"/>
</svg>
