<svg xmlns="http://www.w3.org/2000/svg" width="378" height="198" viewBox="0 0 378 198" fill="none"><path d="M332.038 129.377C314.155 102.006 294.492 75.6908 275.192 49.4188C260.669 29.7436 244.077 9.51698 219.658 2.20936C177.204 -10.4951 136.968 42.7135 115.017 70.3387C78.6763 115.591 50.0922 166.095 16.4981 213.247C16.2255 213.585 16.0231 213.974 15.9028 214.391C15.7825 214.807 15.7467 215.244 15.7975 215.674C6.63649 229.409 -0.186446 244.149 0.432627 258.66C1.70485 287.349 64.839 279.162 81.3876 278.117C126.239 275.142 169.588 272.336 214.587 272.081C242.413 271.936 270.138 270.625 297.909 268.905C317.556 267.718 339.833 266.376 357.054 255.851C407.374 224.977 352.272 160.344 332.038 129.377Z" fill="#FF7DAC"></path></svg>