<svg xmlns="http://www.w3.org/2000/svg" width="27" height="27" viewBox="0 0 27 27" fill="none"><path d="M24.8727 21.0688L24.8427 21.0534L17.7564 17.1023C17.636 17.0359 17.53 16.9464 17.4443 16.8389C17.3586 16.7314 17.295 16.6081 17.2571 16.4761C17.2192 16.344 17.2077 16.2058 17.2234 16.0693C17.2391 15.9329 17.2816 15.8009 17.3485 15.6809C17.4135 15.5594 17.5023 15.4521 17.6096 15.3655C17.7169 15.279 17.8405 15.2148 17.9731 15.1769C18.1057 15.139 18.2446 15.1281 18.3816 15.1449C18.5185 15.1616 18.6507 15.2057 18.7704 15.2745L25.8567 19.2255C26.1008 19.3563 26.2829 19.5786 26.3631 19.8435C26.4433 20.1084 26.415 20.3942 26.2843 20.6381C26.1537 20.8819 25.9314 21.0638 25.6664 21.1437C25.4014 21.2236 25.1154 21.1951 24.8713 21.0643L24.8727 21.0688Z" fill="#FFB340"></path><path d="M8.38555 11.8755L8.35552 11.86L1.26919 7.90901C1.14944 7.84207 1.04404 7.75224 0.959 7.64462C0.873959 7.53701 0.810959 7.4137 0.773571 7.28179C0.736183 7.14988 0.725136 7.01195 0.741092 6.87582C0.757048 6.7397 0.799697 6.60805 0.866568 6.48843C0.93344 6.36881 1.02323 6.26357 1.13084 6.17867C1.23844 6.09377 1.36175 6.03089 1.49371 5.99364C1.62567 5.95638 1.7637 5.94548 1.89992 5.96154C2.03614 5.97761 2.16789 6.02031 2.28763 6.08724L9.37394 10.0383C9.4947 10.1032 9.60151 10.1913 9.68824 10.2975C9.77497 10.4037 9.83995 10.5259 9.87945 10.6571C9.91895 10.7883 9.9322 10.926 9.91846 11.0624C9.90471 11.1987 9.86422 11.3309 9.79932 11.4516C9.73442 11.5722 9.64639 11.6788 9.54022 11.7654C9.43404 11.852 9.31181 11.9169 9.18053 11.9562C9.04925 11.9956 8.91148 12.0087 8.77508 11.9949C8.63867 11.981 8.50632 11.9404 8.38555 11.8755Z" fill="#FFB340"></path><path d="M15.7115 9.79909L15.6845 9.78516C15.4421 9.65034 15.263 9.42497 15.1865 9.1585C15.1101 8.89203 15.1425 8.60622 15.2766 8.36376L19.224 1.28505C19.2873 1.16148 19.3754 1.05228 19.4828 0.964206C19.5902 0.876136 19.7145 0.811075 19.8482 0.773099C19.9818 0.735123 20.1218 0.725047 20.2596 0.743458C20.3973 0.76187 20.5299 0.808383 20.6489 0.880131C20.7693 0.946559 20.8753 1.03609 20.961 1.14356C21.0467 1.25103 21.1103 1.37431 21.1482 1.50638C21.1861 1.63844 21.1976 1.77668 21.1819 1.91313C21.1662 2.04958 21.1237 2.18158 21.0568 2.30153L17.1094 9.38024C16.9775 9.61882 16.7574 9.79622 16.4962 9.8745C16.2349 9.95279 15.9532 9.92573 15.7115 9.79909Z" fill="#FFB340"></path><path d="M6.52663 26.2686L6.49659 26.2531C6.37624 26.1867 6.27018 26.0971 6.18449 25.9897C6.09881 25.8822 6.03517 25.7589 5.99727 25.6269C5.95937 25.4948 5.94795 25.3565 5.96363 25.2201C5.97932 25.0836 6.02182 24.9517 6.08869 24.8317L10.0361 17.753C10.0993 17.6297 10.1872 17.5207 10.2942 17.4328C10.4013 17.3448 10.5254 17.2798 10.6586 17.2417C10.7919 17.2036 10.9316 17.1932 11.0691 17.2113C11.2066 17.2293 11.339 17.2753 11.458 17.3465C11.5784 17.413 11.6844 17.5025 11.7701 17.6099C11.8558 17.7174 11.9194 17.8407 11.9573 17.9728C11.9952 18.1049 12.0066 18.2431 11.991 18.3795C11.9753 18.516 11.9328 18.648 11.8659 18.7679L7.91848 25.8466C7.78657 26.0835 7.56773 26.2599 7.30808 26.3386C7.04844 26.4174 6.76827 26.3923 6.52663 26.2686Z" fill="#FFB340"></path></svg>