<svg xmlns="http://www.w3.org/2000/svg" width="172" height="46" viewBox="0 0 172 46" fill="none"><g clip-path="url(#clip0_0_1577)"><path d="M55.9394 18.0655C56.1149 18.5378 56.1525 19.0501 56.0477 19.542C55.943 20.0338 55.7004 20.4847 55.3484 20.8413C54.9964 21.198 54.5499 21.4456 54.0614 21.5548C53.5729 21.6641 53.0629 21.6305 52.5916 21.458C52.1203 21.2855 51.7073 20.9813 51.4014 20.5813C51.0956 20.1813 50.9096 19.7022 50.8654 19.2005C50.8212 18.6988 50.9207 18.1956 51.1521 17.7501C51.3834 17.3046 51.7371 16.9355 52.1713 16.6864C52.2833 16.6202 52.4004 16.5628 52.5213 16.5149C51.9282 15.8434 50.4367 12.628 48.0977 6.32178C47.8731 5.71612 47.6379 5.08217 47.3905 4.41494C45.6923 5.97038 43.9844 7.51994 42.2872 9.0731C42.9715 11.0547 43.6532 13.0297 44.319 15.0125C29.0325 13.694 25.6568 17.9252 25.6568 17.9252C33.4134 14.155 44.8539 16.5611 45.1595 17.0402C47.81 21.2359 44.5838 19.6349 44.5838 19.6349C29.349 13.0315 15.2405 30.5182 15.2405 30.5182L13.5434 26.9211L13.536 26.9011C12.4654 24.9322 12.4909 22.4356 10.7644 20.7819C7.93961 20.6939 5.12143 20.6034 2.29517 20.5368C1.64347 20.5287 0.978788 20.6427 0.631941 19.8647C0.246808 18.9987 0.994124 18.7121 1.44257 18.3243L11.6117 9.41931C14.607 6.80546 17.5997 4.18946 20.5896 1.57129C21.1548 1.04959 21.8987 0.766892 22.6677 0.781607C31.8362 0.863814 41.0005 0.955127 50.8093 1.04022C49.8033 2.02851 49.1848 2.64215 48.5714 3.24441C51.4685 10.6194 52.8488 15.3599 52.8128 16.4238C52.8149 16.4325 52.815 16.4415 52.8132 16.4502L52.995 16.3827C53.079 16.3659 53.164 16.3546 53.2495 16.3489C53.8217 16.3007 54.3946 16.4425 54.8805 16.7525C55.3664 17.0626 55.7383 17.5238 55.9394 18.0655Z" fill="#F8BC24"></path><path d="M57.7713 46C56.3444 46 55.0736 45.693 53.9589 45.0791C52.8664 44.4652 52.0081 43.6126 51.3838 42.5211C50.7596 41.4297 50.4474 40.1678 50.4474 38.7353V29.1855H54.8618V38.633C54.8618 39.3151 54.9733 39.9063 55.1962 40.4065C55.4192 40.884 55.7536 41.2478 56.1995 41.498C56.6454 41.7481 57.1693 41.8731 57.7713 41.8731C58.6854 41.8731 59.3988 41.5889 59.9116 41.0205C60.4244 40.452 60.6808 39.6562 60.6808 38.633V29.1855H65.0617V38.7353C65.0617 40.1905 64.7496 41.4638 64.1253 42.5553C63.5234 43.6467 62.665 44.4993 61.5503 45.1132C60.4578 45.7044 59.1982 46 57.7713 46Z" fill="white"></path><path d="M68.8848 45.6589V29.1855H73.2992V45.6589H68.8848ZM71.092 26.5252C70.3786 26.5252 69.7878 26.2865 69.3196 25.809C68.8514 25.3088 68.6173 24.6949 68.6173 23.9673C68.6173 23.2624 68.8514 22.6598 69.3196 22.1596C69.7878 21.6594 70.3786 21.4093 71.092 21.4093C71.8277 21.4093 72.4186 21.6594 72.8644 22.1596C73.3326 22.6598 73.5667 23.2624 73.5667 23.9673C73.5667 24.6949 73.3326 25.3088 72.8644 25.809C72.4186 26.2865 71.8277 26.5252 71.092 26.5252Z" fill="white"></path><path d="M87.8147 45.6589L81.561 37.1664L87.7812 29.1855H92.831L85.5406 38.1896L85.7078 36.0068L93.1654 45.6589H87.8147ZM77.5145 45.6589V21H81.8954V45.6589H77.5145Z" fill="white"></path><path d="M95.5171 45.6589V21H99.898V45.6589H95.5171Z" fill="white"></path><path d="M111.839 46C110.145 46 108.64 45.6362 107.325 44.9086C106.009 44.1583 104.961 43.1351 104.181 41.839C103.423 40.543 103.044 39.065 103.044 37.4052C103.044 35.7681 103.412 34.3129 104.148 33.0396C104.906 31.7435 105.931 30.7203 107.224 29.97C108.517 29.1969 109.955 28.8104 111.538 28.8104C113.099 28.8104 114.47 29.1742 115.652 29.9018C116.856 30.6066 117.792 31.5844 118.461 32.8349C119.152 34.0628 119.498 35.4611 119.498 37.03C119.498 37.3256 119.475 37.6326 119.431 37.9509C119.408 38.2465 119.353 38.5875 119.263 38.9741L105.686 39.0082V35.6658L117.223 35.6317L115.451 37.03C115.406 36.0523 115.228 35.2337 114.916 34.5744C114.626 33.915 114.191 33.4147 113.612 33.0737C113.054 32.7099 112.363 32.528 111.538 32.528C110.669 32.528 109.911 32.7326 109.264 33.1419C108.618 33.5284 108.116 34.0855 107.759 34.8131C107.425 35.518 107.258 36.3593 107.258 37.337C107.258 38.3374 107.436 39.2128 107.793 39.9632C108.172 40.6908 108.707 41.2592 109.398 41.6685C110.089 42.055 110.892 42.2483 111.806 42.2483C112.631 42.2483 113.378 42.1119 114.046 41.839C114.715 41.5434 115.295 41.1114 115.785 40.543L118.361 43.1692C117.58 44.1014 116.622 44.8063 115.484 45.2838C114.37 45.7613 113.155 46 111.839 46Z" fill="white"></path><path d="M129.297 46C127.825 46 126.499 45.6248 125.317 44.8745C124.135 44.1241 123.21 43.101 122.541 41.8049C121.872 40.5089 121.538 39.0537 121.538 37.4393C121.538 35.8022 121.872 34.3356 122.541 33.0396C123.21 31.7435 124.135 30.7203 125.317 29.97C126.499 29.2196 127.825 28.8445 129.297 28.8445C130.456 28.8445 131.493 29.0832 132.407 29.5607C133.321 30.0382 134.045 30.709 134.581 31.573C135.138 32.4143 135.439 33.3693 135.483 34.4379V40.3724C135.439 41.4638 135.138 42.4302 134.581 43.2715C134.045 44.1128 133.321 44.7835 132.407 45.2838C131.493 45.7613 130.456 46 129.297 46ZM130.099 41.8731C131.325 41.8731 132.318 41.4638 133.076 40.6453C133.834 39.804 134.213 38.724 134.213 37.4052C134.213 36.5412 134.034 35.7794 133.678 35.1201C133.343 34.4379 132.864 33.915 132.24 33.5512C131.638 33.1646 130.924 32.9714 130.099 32.9714C129.297 32.9714 128.583 33.1646 127.959 33.5512C127.357 33.915 126.878 34.4379 126.521 35.1201C126.187 35.7794 126.019 36.5412 126.019 37.4052C126.019 38.292 126.187 39.0764 126.521 39.7585C126.878 40.4179 127.357 40.9409 127.959 41.3274C128.583 41.6912 129.297 41.8731 130.099 41.8731ZM133.979 45.6589V41.2251L134.681 37.2005L133.979 33.2442V29.1855H138.326V45.6589H133.979Z" fill="white"></path><path d="M142.536 45.6589V29.1855H146.917V45.6589H142.536ZM146.917 36.5525L145.211 35.3929C145.412 33.3693 145.992 31.7776 146.95 30.618C147.909 29.4357 149.291 28.8445 151.097 28.8445C151.878 28.8445 152.58 28.9809 153.204 29.2538C153.828 29.5039 154.397 29.9245 154.91 30.5157L152.167 33.7217C151.922 33.4488 151.621 33.2442 151.265 33.1078C150.93 32.9714 150.54 32.9031 150.094 32.9031C149.158 32.9031 148.388 33.2101 147.787 33.824C147.207 34.4152 146.917 35.3247 146.917 36.5525Z" fill="white"></path><path d="M167.619 45.6589V36.2115C167.619 35.2337 167.318 34.4379 166.716 33.824C166.114 33.2101 165.334 32.9031 164.375 32.9031C163.751 32.9031 163.194 33.0396 162.703 33.3124C162.213 33.5853 161.822 33.9718 161.533 34.472C161.265 34.9723 161.131 35.5521 161.131 36.2115L159.426 35.3247C159.426 34.0287 159.693 32.9031 160.228 31.9482C160.786 30.9704 161.544 30.2087 162.502 29.663C163.483 29.1173 164.587 28.8445 165.813 28.8445C166.995 28.8445 168.054 29.1514 168.99 29.7653C169.927 30.3565 170.662 31.141 171.197 32.1187C171.732 33.0737 172 34.1082 172 35.2224V45.6589H167.619ZM156.75 45.6589V29.1855H161.131V45.6589H156.75Z" fill="white"></path><path d="M47.2948 45.6589H42.7693L35.8706 34.4203L40.3943 38.8704C40.8242 38.406 41.1869 37.8783 41.4709 37.3042C41.9313 36.3726 42.1709 35.339 42.1696 34.2904C42.1696 30.6569 39.3448 27.7021 35.8706 27.7021C32.3964 27.7021 29.5711 30.6569 29.5711 34.2904C29.5711 37.9239 32.3964 40.8782 35.8706 40.8782C36.4276 40.8785 36.9822 40.8013 37.5198 40.6486L40.0579 44.7814C38.7319 45.3625 37.3083 45.6609 35.8706 45.6589C29.8773 45.6589 25 40.5589 25 34.2904C25 28.0218 29.8773 22.9213 35.8706 22.9213C41.8638 22.9213 46.7407 28.0223 46.7407 34.2904C46.7427 36.5586 46.0929 38.7752 44.8756 40.6524C44.5318 41.1822 44.1466 41.6812 43.724 42.1444L47.2948 45.6589Z" fill="white"></path></g><defs><clipPath id="clip0_0_1577"><rect width="172" height="46" fill="white"></rect></clipPath></defs></svg>