<svg xmlns="http://www.w3.org/2000/svg" width="311" height="269" viewBox="0 0 311 269" fill="none"><path d="M-13.1738 118.328C-41.2883 141.686 -52.3337 167.684 -56.1555 190.273C-61.6343 222.685 -53.5919 253.223 -18.51 264.66C-11.8659 266.822 -3.82512 268.25 6.06157 266.075C21.4869 262.68 36.2828 251.812 47.4621 241.703C75.3205 216.521 94.068 189.895 110.647 163.886C126.092 139.662 140.043 115.558 152.501 91.5742C162.241 72.8597 171.109 53.8706 171.372 37.2986C171.405 34.9287 171.06 32.4042 168.032 31.8386C166.009 31.5496 163.421 31.9347 160.805 32.9143C149.865 36.7831 143.059 45.7072 139.471 52.8524C121.54 88.826 131.602 118.883 151.827 141.653C158.331 148.962 166.816 155.992 182.331 155.738C203.166 155.414 230.541 141.37 247.299 126.041C264.058 110.713 272.374 94.4893 279.142 79.0704C296.159 40.1759 306.19 2.54837 309.02 -33.0013" stroke="#3F305B" stroke-width="3" stroke-miterlimit="10"></path></svg>